# xmcd
#
# Track frame offsets: 
#        182
#        16572
#        32030
#        52117
#        66955
#        85742
#        96702
#        113315
#        128215
#        143002
#        157357
#        170720
#        190292
#
# Disc length: 2789 seconds
#
# Revision: 5
# Processed by: cddbd v1.5.2PL0 Copyright (c) Steve Scherf et al.
# Submitted via: ExactAudioCopyFreeDBPlugin 1.0
#
DISCID=b30ae30d
DTITLE=Brendan Croker And The 5 O'Clock Shadows - Brendan Croker And T
DTITLE=he 5 O'Clock Shadows
DYEAR=1989
DGENRE=Blues
TTITLE0=No Money At All
TTITLE1=You Don't Need Me Here
TTITLE2=Shine On
TTITLE3=This Man
TTITLE4=Wrong Decision
TTITLE5=That's Why I'm Leaving Here
TTITLE6=All Mixed Up
TTITLE7=This Kind Of Life
TTITLE8=My Government
TTITLE9=Ain't Gonna Smile
TTITLE10=Just An Old Waltz
TTITLE11=Mister
TTITLE12=Coconut Tree
EXTD=YEAR: 1989
EXTT0=
EXTT1=
EXTT2=
EXTT3=
EXTT4=
EXTT5=
EXTT6=
EXTT7=
EXTT8=
EXTT9=
EXTT10=
EXTT11=
EXTT12=
PLAYORDER=
